<?xml version="1.0" standalone="no"?>
<!DOCTYPE svg PUBLIC "-//W3C//DTD SVG 20010904//EN"
 "http://www.w3.org/TR/2001/REC-SVG-20010904/DTD/svg10.dtd">
<svg version="1.0" xmlns="http://www.w3.org/2000/svg"
 width="700.000000pt" height="700.000000pt" viewBox="0 0 700.000000 700.000000"
 preserveAspectRatio="xMidYMid meet">
<metadata>
Created by potrace 1.11, written by Peter Selinger 2001-2013
</metadata>
<g transform="translate(0.000000,700.000000) scale(0.100000,-0.100000)"
fill="#000000" stroke="none">
<path d="M3387 6124 c-1 -1 -43 -5 -93 -8 -51 -4 -100 -8 -110 -10 -11 -2 -41
-7 -69 -10 -27 -4 -57 -9 -65 -11 -8 -2 -33 -6 -55 -10 -54 -8 -256 -61 -330
-87 -400 -139 -726 -341 -1014 -628 -235 -233 -411 -488 -545 -787 -123 -274
-191 -536 -222 -858 -13 -136 -7 -414 11 -535 2 -14 7 -45 10 -70 35 -254 128
-546 253 -795 44 -88 141 -251 184 -310 205 -277 332 -406 628 -638 17 -14 96
-66 184 -121 63 -40 324 -169 366 -181 14 -4 39 -13 55 -21 158 -70 477 -141
730 -161 270 -21 385 6 497 119 113 113 155 250 123 403 -16 73 -29 99 -100
200 -65 91 -74 108 -91 165 -73 248 81 502 338 556 13 2 190 6 394 8 204 1
375 5 380 8 5 3 32 9 59 12 69 9 217 50 295 82 194 79 347 180 495 329 171
170 281 348 355 575 44 133 52 174 68 340 39 404 -105 925 -358 1300 -268 396
-665 719 -1121 913 -98 42 -234 92 -276 102 -10 3 -49 14 -88 25 -38 11 -79
22 -90 25 -19 4 -40 8 -95 20 -57 12 -78 16 -150 26 -41 5 -86 12 -100 14 -73
12 -444 27 -453 19z m-474 -607 c322 -113 396 -543 128 -753 -81 -64 -147 -87
-257 -90 -105 -3 -174 16 -261 73 -47 31 -114 107 -143 161 -26 51 -43 130
-43 198 1 191 111 342 303 414 58 22 206 20 273 -3z m1452 3 c163 -57 284
-210 298 -378 21 -250 -182 -474 -430 -473 -127 0 -221 40 -311 129 -230 230
-135 620 177 722 66 22 203 22 266 0z m-2340 -1167 c135 -42 250 -157 287
-287 17 -62 18 -67 18 -126 1 -124 -40 -222 -132 -313 -85 -83 -183 -124 -302
-124 -301 -3 -514 306 -406 590 22 58 78 141 111 165 10 7 25 19 33 27 23 23
106 62 156 74 90 21 151 20 235 -6z m3235 -9 c119 -45 209 -137 256 -264 20
-54 27 -179 13 -241 -33 -146 -158 -278 -304 -320 -66 -19 -197 -17 -258 4
-148 52 -272 196 -293 342 -5 36 -6 124 -1 145 31 133 96 231 198 296 114 71
261 86 389 38z"/>
</g>
</svg>
